# xmcd CD database file
# Copyright (C) 1993-1998 Ti Kan
# 
# Track frame offsets:
#     182
#     33210
#     62150
#     92705
#     118797
#     139022
#     168190
#     190575
#     217377
#     257380
#     294815
#     314615
# 
# Disc length: 4598 seconds
# 
# Revision: 1
# Processed by: cddbd v1.4b41PL1 Copyright (c) Steve Scherf et al.
# Submitted via: DiscPlay 4.0.4
# 
DISCID=a911f40c
DTITLE=Odyssey and Friends - GOING BACK TO MY ROOTS
DYEAR=1900
DGENRE=
TTITLE0=Going back to my roots
TTITLE1=Ladies rap
TTITLE2=Joy I know it
TTITLE3=Girls
TTITLE4=Laughing and smiling
TTITLE5=Push up on me
TTITLE6=Use it up and wear it out
TTITLE7=Save me
TTITLE8=Ajomora roots suite
TTITLE9=Love fixation
TTITLE10=Going back to my roots (Short edit)
TTITLE11=Love will keep us together
EXTD=
EXTT0=
EXTT1=
EXTT2=
EXTT3=
EXTT4=
EXTT5=
EXTT6=
EXTT7=
EXTT8=
EXTT9=
EXTT10=
EXTT11=
PLAYORDER=
